<svg xmlns="http://www.w3.org/2000/svg" version="1.1" xmlns:xlink="http://www.w3.org/1999/xlink" xmlns:svgjs="http://svgjs.dev/svgjs" width="1000" height="500" viewBox="249.39393939393938 499.5196597906652 1000 500"><g transform="matrix(0.6666666666666666,0,0,0.6666666666666666,249.39393939393938,499.5196597906652)"><svg viewBox="0 0 396 198" data-background-color="#ffffff" preserveAspectRatio="xMidYMid meet" height="750" width="1500" xmlns="http://www.w3.org/2000/svg" xmlns:xlink="http://www.w3.org/1999/xlink"><g id="tight-bounds" transform="matrix(1,0,0,1,0.2400000000000091,0.19021472289657027)"><svg viewBox="0 0 395.52 197.6193914357974" height="197.6193914357974" width="395.52"><g><svg viewBox="0 0 395.52 197.6193914357974" height="197.6193914357974" width="395.52"><g transform="matrix(1,0,0,1,0,130.28248687288695)"><svg viewBox="0 0 395.52 67.33690456291045" height="67.33690456291045" width="395.52"><g id="textblocktransform"><svg viewBox="0 0 395.52 67.33690456291045" height="67.33690456291045" width="395.52" id="textblock"><g><svg viewBox="0 0 395.52 67.33690456291045" height="67.33690456291045" width="395.52"><g transform="matrix(1,0,0,1,0,0)"><svg width="395.52" viewBox="-2.83249 -36.35841 338.77358000000004 57.67587822806224" height="67.33690456291045" data-palette-color="#e8772e"><path d="M12.809 16.26l-8.142 1.449-7.499-42.117 8.141-1.45zM15.706 15.793l-5.701-36.012 8.613-1.363 0.726 4.583c0.128-1.539 0.56-2.836 1.297-3.891 0.744-1.056 1.854-1.701 3.329-1.934v0c2.423-0.384 4.335 0.076 5.736 1.38 1.402 1.31 2.321 3.342 2.757 6.094v0l4.4 27.794-8.465 1.34-4.259-26.905c-0.125-0.79-0.386-1.437-0.783-1.942-0.398-0.511-0.926-0.714-1.585-0.609v0c-0.882 0.14-1.401 0.634-1.557 1.481-0.149 0.847-0.118 1.942 0.094 3.286v0l4.011 25.335zM47.366 11.438c-2.266 0.307-3.893 0.04-4.882-0.803-0.981-0.836-1.614-2.308-1.899-4.415v0l-3.055-22.554-2.418 0.328-0.888-6.56 2.418-0.328-1.037-7.65 8.384-1.135 1.036 7.65 2.467-0.334 0.889 6.56-2.468 0.334 2.748 20.285c0.085 0.628 0.197 1.083 0.336 1.367 0.138 0.277 0.422 0.387 0.852 0.329v0c0.33-0.045 0.642-0.104 0.935-0.177 0.286-0.072 0.479-0.115 0.578-0.129v0l0.802 5.926c-0.471 0.198-1.166 0.434-2.084 0.706-0.918 0.279-1.822 0.479-2.714 0.6zM58.587-29.579l-8.656 1.051-0.732-6.026 8.656-1.051zM63.275 9.037l-8.656 1.051-4.394-36.194 8.656-1.051zM73.501 8.396c-2.109 0.214-3.752-0.129-4.928-1.029-1.177-0.899-2.022-2.164-2.535-3.794-0.521-1.636-0.913-3.757-1.177-6.364v0l-1.557-16.366c-0.261-2.574 0.18-4.746 1.321-6.516 1.141-1.764 2.899-2.766 5.274-3.007v0c2.348-0.238 4.178 0.361 5.489 1.797v0l-0.858-8.477 8.675-0.878 4.334 42.811-8.676 0.878-0.39-3.86c-0.347 1.469-0.906 2.601-1.677 3.396-0.771 0.795-1.869 1.265-3.295 1.409zM76.137 1.274c0.862-0.087 1.383-0.566 1.564-1.434 0.173-0.869 0.188-2.016 0.043-3.442v0l-0.155-1.533-1.38-13.63c-0.107-1.055-0.343-1.932-0.708-2.632-0.372-0.693-0.939-1.001-1.702-0.923v0c-0.856 0.087-1.392 0.483-1.608 1.188-0.21 0.705-0.257 1.634-0.14 2.788v0l1.545 15.262c0.308 3.044 1.155 4.497 2.541 4.356zM100.74 5.994c-3.736 0.278-6.495-0.549-8.277-2.483-1.775-1.934-2.814-4.935-3.118-9.003v0l-1.087-14.609c-0.249-3.344 0.522-5.965 2.312-7.864 1.791-1.892 4.409-2.966 7.852-3.222v0c6.987-0.52 10.736 2.643 11.246 9.491v0l0.196 2.633c0.198 2.653 0.325 4.809 0.382 6.469v0l-12.615 0.94 0.525 7.05c0.094 1.257 0.3 2.231 0.618 2.922 0.319 0.692 0.907 1.005 1.765 0.942v0c0.665-0.05 1.122-0.281 1.373-0.694 0.25-0.42 0.382-0.887 0.396-1.403 0.008-0.515-0.025-1.272-0.098-2.269v0l-0.262-3.52 8.646-0.644 0.155 2.084c0.315 4.235-0.273 7.417-1.766 9.548-1.486 2.123-4.234 3.334-8.243 3.632zM97.259-15.969l4.119-0.306-0.348-4.677c-0.195-2.613-0.937-3.871-2.227-3.775v0c-1.456 0.108-2.087 1.469-1.892 4.081v0zM136.67 4.078c-3.984 0.142-6.892-0.769-8.723-2.731-1.831-1.963-2.821-5.033-2.969-9.211v0l-0.401-11.252c-0.112-3.151 0.14-5.725 0.756-7.722 0.609-2.003 1.699-3.529 3.269-4.579 1.577-1.05 3.791-1.626 6.643-1.728v0c3.118-0.111 5.685 0.612 7.702 2.168 2.017 1.556 3.077 3.793 3.181 6.711v0l0.198 5.576-8.864 0.316-0.183-5.127c-0.034-0.966-0.191-1.701-0.468-2.205-0.285-0.504-0.81-0.742-1.577-0.714v0c-1.426 0.051-2.103 1.089-2.03 3.114v0l0.628 17.669c0.029 0.826 0.228 1.523 0.595 2.09 0.374 0.574 0.907 0.848 1.6 0.824v0c0.7-0.025 1.212-0.327 1.539-0.906 0.326-0.579 0.457-1.314 0.392-2.205v0l-0.268-6.124 8.864-0.316 0.227 6.376c0.106 2.985-0.78 5.364-2.657 7.139-1.885 1.781-4.369 2.727-7.454 2.837zM160.275 3.593c-7.273 0.067-10.944-3.669-11.014-11.209v0l-0.135-14.639c-0.032-3.453 0.916-6.209 2.843-8.267 1.921-2.058 4.575-3.102 7.962-3.134v0c3.387-0.031 6.059 0.964 8.018 2.986 1.965 2.022 2.964 4.759 2.996 8.213v0l0.135 14.639c0.07 7.54-3.532 11.343-10.805 11.411zM160.213-3.137c0.7-0.006 1.214-0.258 1.543-0.754 0.322-0.503 0.479-1.184 0.471-2.045v0l-0.165-17.829c-0.02-2.127-0.709-3.184-2.069-3.171v0c-1.36 0.013-2.03 1.082-2.011 3.209v0l0.165 17.829c0.008 0.86 0.181 1.538 0.519 2.035 0.338 0.49 0.853 0.732 1.547 0.726zM173.932 3.145l0.624-36.455 8.719 0.15-0.08 4.639c0.392-1.494 1.043-2.696 1.952-3.607 0.916-0.911 2.12-1.354 3.613-1.329v0c2.453 0.042 4.256 0.826 5.411 2.353 1.154 1.533 1.707 3.693 1.659 6.48v0l-0.481 28.136-8.569-0.147 0.466-27.236c0.014-0.8-0.131-1.482-0.435-2.048-0.304-0.572-0.789-0.864-1.455-0.875v0c-0.893-0.015-1.49 0.381-1.791 1.19-0.294 0.808-0.452 1.893-0.476 3.252v0l-0.439 25.646zM208.27 4.488c-7.193-0.317-10.629-4.125-10.308-11.425v0l0.177-2.885 8.702 0.383-0.139 4.289c-0.038 0.859 0.1 1.519 0.413 1.98 0.313 0.468 0.849 0.718 1.609 0.751v0c1.166 0.051 1.79-0.869 1.873-2.76v0c0.061-1.392-0.167-2.5-0.684-3.324-0.511-0.823-1.343-1.707-2.496-2.652v0l-4.468-3.79c-1.538-1.296-2.628-2.615-3.269-3.958-0.635-1.336-0.9-3.199-0.795-5.59v0c0.082-1.858 0.638-3.422 1.668-4.691 1.037-1.262 2.382-2.191 4.037-2.785 1.654-0.588 3.477-0.838 5.468-0.751v0c7.066 0.311 10.445 3.98 10.136 11.007v0l-0.031 0.699-9.002-0.396 0.062-1.389c0.038-0.866-0.073-1.611-0.332-2.236-0.253-0.625-0.712-0.952-1.379-0.982v0c-0.593-0.026-1.057 0.127-1.391 0.459-0.328 0.333-0.506 0.799-0.532 1.398v0c-0.058 1.325 0.413 2.377 1.413 3.155v0l5.192 4.163c1.862 1.51 3.272 3.127 4.23 4.85 0.952 1.724 1.372 3.861 1.259 6.412v0c-0.149 3.383-1.226 5.945-3.231 7.685-2.005 1.74-4.733 2.534-8.182 2.383zM228.442 5.616c-2.72-0.189-4.529-1.129-5.428-2.823-0.898-1.693-1.236-4.145-1.013-7.357v0l1.879-27.085 8.749 0.607-1.758 25.339c-0.016 0.233-0.059 0.855-0.129 1.865-0.07 1.011 0.037 1.733 0.32 2.168 0.29 0.441 0.764 0.685 1.423 0.73v0c0.898 0.062 1.486-0.275 1.765-1.011 0.284-0.729 0.475-1.788 0.571-3.178v0l0.021-0.299 1.807-25.336 8.649 0.6-2.523 36.373-8.699-0.603 0.269-3.871c-0.698 1.482-1.468 2.524-2.312 3.127-0.838 0.61-2.034 0.861-3.591 0.754zM254.715 7.291l-8.835-0.79 3.832-42.859 8.835 0.79zM265.329 8.808c-2.274-0.239-3.792-0.885-4.552-1.937-0.755-1.045-1.021-2.625-0.798-4.74v0l2.382-22.635-2.426-0.255 0.693-6.584 2.426 0.256 0.808-7.678 8.414 0.886-0.808 7.677 2.476 0.261-0.693 6.583-2.476-0.26-2.143 20.357c-0.066 0.63-0.065 1.099 0.003 1.408 0.069 0.302 0.319 0.476 0.749 0.522v0c0.332 0.035 0.648 0.051 0.95 0.049 0.295-0.002 0.493 0.002 0.592 0.012v0l-0.626 5.948c-0.505 0.081-1.235 0.145-2.192 0.191-0.958 0.053-1.884 0.033-2.779-0.061zM285.959-28.376l-8.659-1.033 0.719-6.027 8.659 1.032zM281.353 10.25l-8.658-1.032 4.316-36.204 8.659 1.032zM284.396 10.666l5.033-36.111 8.637 1.204-0.641 4.595c0.57-1.435 1.362-2.55 2.374-3.344 1.019-0.794 2.268-1.087 3.748-0.881v0c2.43 0.339 4.125 1.336 5.086 2.991 0.96 1.662 1.247 3.873 0.862 6.633v0l-3.884 27.87-8.488-1.183 3.76-26.979c0.11-0.792 0.049-1.487-0.184-2.086-0.232-0.605-0.678-0.953-1.338-1.044v0c-0.885-0.123-1.525 0.198-1.922 0.964-0.39 0.767-0.678 1.824-0.866 3.17v0l-3.541 25.405zM317.301 20.989c-2.551-0.427-4.523-0.966-5.914-1.618-1.384-0.657-2.684-1.676-3.899-3.055v0l3.769-4.469c1.89 1.594 3.867 2.563 5.931 2.908v0c1.341 0.224 2.428-0.03 3.261-0.763 0.827-0.74 1.363-1.847 1.609-3.32v0l0.328-1.963c-1.095 2.345-3.119 3.27-6.071 2.777v0c-2.453-0.41-4.121-1.548-5.005-3.412-0.885-1.865-1.094-4.191-0.628-6.979v0l2.258-13.503c0.532-3.182 1.472-5.526 2.818-7.031 1.347-1.505 3.345-2.036 5.995-1.593v0c1.545 0.258 2.701 0.847 3.467 1.765 0.772 0.92 1.189 2.108 1.249 3.565v0l0.674-4.034 8.798 1.472-4.994 29.865c-0.674 4.031-2.093 6.774-4.256 8.231-2.163 1.456-5.293 1.842-9.39 1.157zM320.843 5.572c1.341 0.224 2.214-0.873 2.619-3.293v0l2.144-12.822c0.121-0.723 0.042-1.443-0.237-2.159-0.285-0.724-0.723-1.135-1.315-1.234v0c-0.75-0.125-1.301 0.06-1.654 0.555-0.353 0.495-0.609 1.22-0.769 2.173v0l-2.144 12.822c-0.18 1.078-0.195 1.975-0.044 2.689 0.151 0.715 0.618 1.137 1.4 1.269z" opacity="1" transform="matrix(1,0,0,1,0,0)" fill="#ffffff" class="wordmark-text-0" data-fill-palette-color="primary" id="text-0"></path></svg></g></svg></g></svg></g></svg></g><g transform="matrix(1,0,0,1,143.2831829161396,0)"><svg viewBox="0 0 108.95363416772078 108.9511115827891" height="108.9511115827891" width="108.95363416772078"><g><svg xmlns="http://www.w3.org/2000/svg" xmlns:xlink="http://www.w3.org/1999/xlink" version="1.1" x="0" y="0" viewBox="6.999590503089512 7 50.00115766828582 50" enable-background="new 0 0 64 64" xml:space="preserve" height="108.9511115827891" width="108.95363416772078" class="icon-icon-0" data-fill-palette-color="accent" id="icon-0"><g fill="#e8772e" data-fill-palette-color="accent"><g fill="#e8772e" data-fill-palette-color="accent"><path d="M56.895 49.553l-6-12C50.725 37.214 50.379 37 50 37H14c-0.379 0-0.725 0.214-0.895 0.553l-6 12c-0.155 0.31-0.138 0.678 0.044 0.973S7.653 51 8 51h23v4h-5c-0.552 0-1 0.447-1 1s0.448 1 1 1h12c0.553 0 1-0.447 1-1s-0.447-1-1-1h-5v-4h23c0.347 0 0.668-0.18 0.851-0.475S57.05 49.862 56.895 49.553z" fill="#ffffff" data-fill-palette-color="accent"></path><path d="M32 25c2.757 0 5-2.243 5-5s-2.243-5-5-5-5 2.243-5 5S29.243 25 32 25z" fill="#ffffff" data-fill-palette-color="accent"></path><path d="M32 11c0.552 0 1-0.448 1-1V8c0-0.552-0.448-1-1-1s-1 0.448-1 1v2C31 10.552 31.448 11 32 11z" fill="#ffffff" data-fill-palette-color="accent"></path><path d="M31 30v2c0 0.552 0.448 1 1 1s1-0.448 1-1v-2c0-0.552-0.448-1-1-1S31 29.448 31 30z" fill="#ffffff" data-fill-palette-color="accent"></path><path d="M41 20c0 0.552 0.447 1 1 1h2c0.553 0 1-0.448 1-1s-0.447-1-1-1h-2C41.447 19 41 19.448 41 20z" fill="#ffffff" data-fill-palette-color="accent"></path><path d="M20 21h2c0.552 0 1-0.448 1-1s-0.448-1-1-1h-2c-0.552 0-1 0.448-1 1S19.448 21 20 21z" fill="#ffffff" data-fill-palette-color="accent"></path><path d="M39.071 13.929c0.256 0 0.512-0.098 0.707-0.293l1.414-1.414c0.391-0.391 0.391-1.023 0-1.414s-1.023-0.391-1.414 0l-1.414 1.414c-0.391 0.391-0.391 1.023 0 1.414C38.56 13.831 38.815 13.929 39.071 13.929z" fill="#ffffff" data-fill-palette-color="accent"></path><path d="M24.222 26.364l-1.414 1.414c-0.391 0.391-0.391 1.023 0 1.414 0.195 0.195 0.451 0.293 0.707 0.293s0.512-0.098 0.707-0.293l1.414-1.414c0.391-0.391 0.391-1.023 0-1.414S24.612 25.974 24.222 26.364z" fill="#ffffff" data-fill-palette-color="accent"></path><path d="M39.778 29.192c0.195 0.195 0.451 0.293 0.707 0.293s0.512-0.098 0.707-0.293c0.391-0.391 0.391-1.023 0-1.414l-1.414-1.414c-0.391-0.391-1.023-0.391-1.414 0s-0.391 1.023 0 1.414L39.778 29.192z" fill="#ffffff" data-fill-palette-color="accent"></path><path d="M24.222 13.636c0.195 0.195 0.451 0.293 0.707 0.293s0.512-0.098 0.707-0.293c0.391-0.391 0.391-1.023 0-1.414l-1.414-1.414c-0.391-0.391-1.023-0.391-1.414 0s-0.391 1.023 0 1.414L24.222 13.636z" fill="#ffffff" data-fill-palette-color="accent"></path></g></g></svg></g></svg></g><g></g></svg></g><defs></defs></svg><rect width="395.52" height="197.6193914357974" fill="none" stroke="none" visibility="hidden"></rect></g></svg></g></svg>